<?xml version="1.0" standalone="no"?>
<!DOCTYPE svg PUBLIC "-//W3C//DTD SVG 20010904//EN"
 "http://www.w3.org/TR/2001/REC-SVG-20010904/DTD/svg10.dtd">
<svg version="1.0" xmlns="http://www.w3.org/2000/svg"
 width="400.000000pt" height="400.000000pt" viewBox="0 0 400.000000 400.000000"
 preserveAspectRatio="xMidYMid meet">
<metadata>
Created by potrace 1.14, written by Peter Selinger 2001-2017
</metadata>
<g transform="translate(0.000000,400.000000) scale(0.100000,-0.100000)"
fill="#000000" stroke="none">
<path d="M1785 3653 c-126 -17 -385 -84 -385 -100 0 -11 118 10 157 29 25 12
51 17 63 13 12 -4 26 -2 33 3 7 5 47 12 90 16 43 3 84 9 90 13 7 4 21 8 32 9
11 0 37 4 58 8 22 4 37 3 37 -3 0 -5 -6 -11 -12 -14 -7 -2 -4 -2 7 0 116 26
226 16 324 -29 25 -11 84 -32 131 -45 85 -25 232 -86 260 -109 8 -6 25 -15 38
-18 12 -4 22 -11 22 -16 0 -11 72 -61 78 -55 3 2 -6 14 -19 26 l-24 21 30 -17
c17 -10 34 -24 38 -32 5 -7 13 -11 18 -7 5 3 9 2 8 -3 -1 -4 1 -16 6 -26 4
-10 1 -26 -8 -41 -16 -23 -7 -46 16 -46 5 0 38 -30 73 -67 49 -51 61 -69 53
-79 -9 -11 -3 -26 21 -64 39 -60 64 -80 104 -80 28 0 29 -1 12 -19 -14 -16
-17 -31 -13 -73 6 -52 9 -231 5 -274 -2 -17 -8 -21 -26 -19 l-24 2 26 -22 c37
-31 32 -38 -9 -14 -37 22 -40 19 -26 -31 5 -18 14 -25 34 -25 14 -1 24 1 22 3
-5 5 21 32 30 32 4 0 5 -9 2 -20 -3 -12 1 -24 11 -31 12 -7 14 -12 5 -15 -10
-4 -9 -13 2 -40 8 -19 14 -35 14 -37 -1 -15 22 -50 56 -82 23 -22 45 -48 48
-57 4 -10 11 -18 16 -18 6 0 17 -13 26 -30 8 -16 29 -36 45 -45 22 -12 28 -20
24 -37 -17 -70 -12 -97 12 -77 8 6 14 10 15 8 8 -40 8 -54 -1 -64 -6 -7 -11
-29 -12 -49 -1 -22 -8 -41 -17 -46 -14 -8 -9 -12 16 -9 22 1 44 -165 25 -186
-5 -6 -6 -21 -2 -35 6 -21 9 -16 20 33 7 31 19 62 27 68 7 6 13 18 13 26 0 8
5 11 11 7 11 -6 9 -40 -7 -124 -6 -33 -6 -34 9 -15 15 18 15 14 1 -44 -8 -35
-23 -82 -33 -105 l-20 -41 5 35 4 35 -13 -40 c-13 -38 -76 -160 -102 -198 -13
-19 -32 -6 -20 13 4 6 1 17 -5 25 -7 9 -8 15 -2 15 13 0 23 40 15 68 -4 18 -8
20 -19 11 -11 -9 -14 -7 -15 7 -1 29 -19 -23 -24 -66 -9 -86 -102 -318 -140
-350 -14 -12 -15 -10 -6 11 5 14 7 36 6 51 -4 32 16 93 39 119 15 18 15 20 -6
29 -18 7 -19 9 -5 9 9 1 17 8 17 16 0 8 6 15 13 15 15 0 40 47 32 60 -3 5 0
10 7 12 13 5 17 73 5 85 -4 3 -12 2 -18 -4 -6 -6 -18 -9 -26 -6 -8 3 -20 -3
-28 -13 -12 -16 -14 -17 -15 -3 0 9 7 33 15 52 8 20 15 53 14 74 -1 36 -4 31
-54 -72 -58 -117 -76 -139 -97 -116 -8 9 -9 12 -1 7 6 -3 14 -2 18 4 4 6 -6
10 -24 10 -23 0 -29 -4 -25 -15 5 -12 -2 -15 -28 -15 -29 0 -35 4 -45 33 -19
56 -25 83 -15 68 8 -11 11 -10 16 5 3 11 6 23 5 27 0 5 8 15 18 24 13 10 15
16 6 19 -7 3 -13 13 -13 22 0 36 30 -14 43 -73 13 -58 14 -59 21 -28 4 18 12
36 18 39 8 5 9 -1 4 -17 -21 -75 -20 -79 10 -78 25 0 26 2 9 9 -11 5 -14 9 -6
9 9 1 11 9 7 27 -7 25 -6 25 10 10 26 -26 40 -5 28 41 -11 39 -11 37 40 144
20 42 15 74 -13 82 -13 3 -21 -2 -25 -16 -4 -18 -7 -18 -21 -7 -15 12 -18 12
-26 -2 -19 -34 -42 -50 -63 -43 -72 22 -91 24 -106 10 -12 -13 -11 -15 10 -15
35 0 57 -15 36 -23 -9 -4 -16 -15 -16 -26 0 -21 -3 -21 -62 1 -22 8 -28 17
-28 39 0 15 5 31 11 34 36 23 26 95 -17 128 -24 18 -26 18 -80 -8 -31 -14 -74
-29 -97 -31 -22 -3 -44 -7 -49 -10 -14 -9 -88 19 -88 33 0 7 -4 13 -10 13 -5
0 -10 5 -10 11 0 7 -8 18 -17 26 -10 8 -12 11 -4 7 8 -4 12 -2 10 5 -3 7 -7
11 -10 9 -10 -5 -39 24 -33 33 3 5 2 9 -3 8 -17 -4 -43 14 -43 29 0 8 -3 13
-6 9 -6 -6 -34 16 -34 28 0 3 -9 16 -21 28 -11 12 -28 36 -36 52 -14 27 -71
104 -96 130 -17 17 4 -17 45 -73 47 -63 98 -168 98 -199 0 -20 5 -23 39 -23
44 0 71 -26 71 -67 0 -24 -34 -53 -61 -53 -24 0 -61 -49 -57 -74 2 -14 12 -22
28 -24 53 -6 67 -12 78 -37 6 -13 9 -31 6 -38 -3 -8 2 -20 11 -27 8 -7 15 -19
15 -26 0 -8 9 -14 21 -14 33 0 59 -19 59 -44 0 -13 9 -33 20 -46 20 -23 20
-24 2 -42 -11 -12 -52 -26 -103 -36 -125 -24 -691 -23 -877 2 -230 31 -266 47
-224 101 12 15 22 37 22 49 0 38 16 50 60 48 55 -4 70 10 63 54 -5 30 -1 40
21 60 14 14 26 31 26 38 0 7 9 21 21 32 l21 19 -41 17 c-28 12 -42 25 -47 43
-9 36 10 75 37 75 16 0 19 4 14 18 -4 9 -16 54 -27 99 l-21 81 -29 -21 c-29
-21 -30 -21 -43 -3 -8 10 -17 44 -22 75 -11 79 -8 334 4 338 6 2 8 23 5 48 -3
30 0 52 10 67 8 13 18 39 22 59 3 20 15 44 26 54 11 10 20 28 20 41 0 12 15
38 33 57 86 93 82 87 67 97 -19 12 -80 1 -98 -17 -16 -15 -46 -17 -71 -3 -29
15 -125 -37 -129 -70 -2 -14 -7 -34 -12 -45 -35 -74 -31 -134 11 -176 11 -11
18 -27 15 -35 -3 -8 0 -14 7 -14 7 -1 -1 -7 -18 -14 -26 -11 -36 -10 -73 7
-73 32 -115 59 -102 67 8 5 4 9 -9 13 -15 4 -21 1 -20 -11 1 -26 13 -47 27
-48 6 -1 21 -2 32 -2 11 -1 20 -9 20 -18 0 -8 3 -13 8 -11 16 11 71 -51 90
-100 l20 -53 -41 26 c-23 14 -59 33 -79 42 -36 16 -50 32 -28 32 6 0 10 5 10
10 0 6 -7 10 -15 10 -8 0 -15 -4 -15 -8 0 -5 -7 -17 -16 -28 -12 -15 -14 -15
-11 -2 3 9 0 24 -8 34 -7 10 -11 24 -8 31 4 10 -11 12 -66 9 -77 -4 -91 -10
-73 -28 7 -7 12 -20 12 -29 0 -9 6 -16 13 -15 6 0 12 -3 12 -9 0 -5 -4 -9 -10
-8 -6 2 -9 -20 -8 -55 1 -50 4 -58 25 -63 22 -7 22 -7 -4 -8 -31 -1 -43 -38
-18 -58 13 -11 13 -12 -1 -13 -20 0 -33 -27 -18 -36 6 -3 18 1 28 10 28 26 33
6 6 -26 -27 -32 -30 -49 -15 -78 6 -10 6 -21 1 -24 -4 -3 -14 -26 -21 -52 -11
-39 -11 -47 1 -55 11 -7 11 -9 -3 -9 -35 0 -20 -36 20 -47 l37 -10 -41 -2 -41
-1 -10 -55 c-9 -50 -8 -55 10 -61 16 -5 17 -8 6 -16 -10 -7 -8 -8 8 -5 13 3
26 1 29 -4 3 -5 18 -9 34 -9 33 0 49 22 51 67 2 23 2 24 6 6 4 -23 23 -33 23
-13 0 6 5 10 10 10 12 0 3 -69 -11 -84 -5 -6 -9 -21 -9 -35 0 -19 -3 -22 -12
-13 -8 8 -14 5 -25 -14 -14 -28 -10 -44 12 -44 9 0 12 -6 8 -16 -5 -13 -8 -13
-15 -2 -7 9 -8 8 -4 -5 3 -10 6 -22 6 -27 0 -5 15 -12 33 -16 l32 -8 -30 -7
c-51 -12 -96 -10 -94 4 3 28 -2 39 -16 33 -8 -3 -15 -1 -15 4 0 6 -16 10 -35
10 -19 0 -34 3 -34 8 4 21 -3 32 -20 32 -11 0 -22 -6 -24 -12 -4 -10 -8 -10
-15 0 -17 24 -22 -14 -8 -55 17 -50 30 -120 20 -110 -5 4 -9 18 -11 31 -2 12
-11 47 -21 77 l-17 54 -109 3 c-85 2 -114 -1 -132 -13 -22 -14 -24 -14 -25 2
0 11 -3 13 -6 6 -2 -7 -9 -13 -14 -13 -6 0 -9 6 -8 13 5 37 -2 57 -20 57 -22
0 -33 -22 -26 -53 2 -12 7 -50 10 -84 3 -33 9 -73 15 -87 15 -41 4 -30 -21 19
-12 25 -26 45 -31 45 -10 0 -10 -14 -1 -24 8 -8 9 -13 12 -42 0 -9 6 -12 13
-8 6 4 8 3 5 -3 -16 -26 105 -266 205 -407 161 -228 438 -455 678 -555 30 -13
79 -34 108 -47 101 -46 168 -62 317 -79 83 -9 190 -23 239 -32 149 -26 302 -3
476 72 47 20 93 40 102 46 10 5 22 9 27 9 28 0 271 128 341 179 385 282 618
647 700 1096 40 221 27 542 -30 730 -5 17 -17 55 -27 85 -9 30 -18 60 -19 65
-3 18 -94 208 -112 235 -9 14 -17 27 -17 30 -1 11 -78 125 -86 128 -5 2 -9 8
-9 13 0 10 -12 26 -101 128 -36 42 -94 101 -128 131 -35 30 -68 60 -75 66 -7
6 -26 19 -43 27 -17 9 -33 24 -37 33 -3 9 -12 14 -21 10 -8 -3 -15 -1 -15 4 0
5 -11 15 -24 22 -13 7 -48 26 -77 43 -69 39 -73 40 -64 25 6 -9 3 -9 -14 -1
-24 13 -28 23 -6 15 8 -4 15 -4 15 0 0 10 -151 76 -255 111 -178 61 -278 77
-490 80 -104 1 -203 1 -220 -2z m1139 -346 c10 -8 15 -17 9 -20 -5 -3 -21 5
-36 17 -47 41 -26 43 27 3z m127 -68 c53 -50 70 -71 65 -84 -3 -10 -1 -24 5
-31 12 -15 41 -63 61 -102 15 -29 -3 -52 -25 -34 -8 7 -16 9 -19 6 -6 -6 -14
5 -74 95 l-36 54 26 -5 c14 -3 26 -3 26 -1 0 17 -28 49 -64 71 -24 15 -41 33
-38 40 2 8 -11 32 -29 54 l-33 41 32 -18 c17 -10 63 -49 103 -86z m281 -336
c47 -55 138 -240 182 -373 37 -110 79 -322 74 -367 -4 -34 -28 -43 -28 -11
l-1 23 -14 -25 c-11 -20 -14 -21 -15 -7 0 14 -5 17 -20 12 -15 -5 -20 -2 -20
13 0 10 -9 27 -20 37 -23 20 -44 112 -38 164 6 48 -24 182 -56 251 -28 62 -70
107 -101 110 -39 4 -56 0 -49 -12 4 -7 3 -8 -4 -4 -15 9 -15 38 -1 69 9 19 7
31 -5 56 -9 17 -18 51 -20 75 -3 38 -1 43 15 39 13 -4 19 0 19 10 0 24 33 26
50 3 8 -11 31 -39 52 -63z m-1977 -283 c3 -5 1 -10 -4 -10 -6 0 -11 5 -11 10
0 6 2 10 4 10 3 0 8 -4 11 -10z m1935 -225 c0 -15 7 -26 19 -30 11 -3 24 -20
30 -37 16 -46 14 -52 -14 -34 -13 9 -31 16 -40 16 -12 0 -15 11 -13 59 2 33 6
57 11 54 4 -2 7 -15 7 -28z m-1976 -157 c-3 -4 -16 -8 -30 -8 -14 0 -22 4 -19
10 3 5 17 9 30 8 13 -1 21 -6 19 -10z m-234 -27 c0 -12 -12 -26 -32 -35 l-33
-16 28 23 c15 13 27 28 27 35 0 7 2 12 5 12 3 0 5 -9 5 -19z m50 15 c0 -2 -9
-6 -20 -9 -11 -3 -18 -1 -14 4 5 9 34 13 34 5z m-110 -31 c-7 -9 -15 -13 -17
-11 -7 7 7 26 19 26 6 0 6 -6 -2 -15z m255 5 c3 -5 1 -10 -4 -10 -6 0 -11 5
-11 10 0 6 2 10 4 10 3 0 8 -4 11 -10z m-215 -200 c0 -5 -5 -10 -11 -10 -5 0
-7 5 -4 10 3 6 8 10 11 10 2 0 4 -4 4 -10z m170 -104 c0 -17 -2 -18 -10 -6 -8
12 -10 12 -16 -3 -3 -9 -4 -27 0 -40 3 -12 0 -29 -5 -37 -9 -13 -10 -12 -5 3
9 29 -3 19 -17 -15 -8 -18 -25 -42 -38 -53 -13 -11 -19 -13 -13 -5 10 13 35
76 63 151 11 31 41 35 41 5z m-170 -46 c0 -5 -2 -10 -4 -10 -3 0 -8 5 -11 10
-3 6 -1 10 4 10 6 0 11 -4 11 -10z m60 -60 c0 -5 -5 -10 -11 -10 -5 0 -7 5 -4
10 3 6 8 10 11 10 2 0 4 -4 4 -10z m245 -80 c-3 -5 -11 -10 -16 -10 -6 0 -7 5
-4 10 3 6 11 10 16 10 6 0 7 -4 4 -10z m1305 -140 c0 -5 -4 -10 -10 -10 -5 0
-10 5 -10 10 0 6 5 10 10 10 6 0 10 -4 10 -10z m-2173 -42 c-3 -8 -6 -5 -6 6
-1 11 2 17 5 13 3 -3 4 -12 1 -19z m439 -33 c-9 -9 -16 -13 -16 -8 0 12 22 34
28 28 2 -2 -3 -11 -12 -20z m1917 -44 c-20 -48 -25 -51 -17 -13 5 27 3 32 -12
33 -16 0 -16 2 4 9 12 5 22 15 22 22 0 10 2 10 9 -1 6 -8 3 -27 -6 -50z m-56
-3 c-3 -8 -6 -5 -6 6 -1 11 2 17 5 13 3 -3 4 -12 1 -19z m96 -2 c4 -10 1 -13
-7 -10 -7 3 -20 -11 -31 -36 -10 -22 -20 -38 -23 -35 -7 6 37 95 47 95 5 0 11
-7 14 -14z m-2013 -141 c0 -5 -5 -3 -10 5 -5 8 -10 20 -10 25 0 6 5 3 10 -5 5
-8 10 -19 10 -25z m1936 -2 c-10 -10 -19 5 -10 18 6 11 8 11 12 0 2 -7 1 -15
-2 -18z m-1597 1 c2 -2 -19 -4 -47 -4 -29 0 -52 5 -52 10 0 10 88 4 99 -6z
m1971 -4 c0 -5 -5 -10 -11 -10 -5 0 -7 5 -4 10 3 6 8 10 11 10 2 0 4 -4 4 -10z
m-2296 -26 c3 -8 2 -12 -4 -9 -6 3 -10 10 -10 16 0 14 7 11 14 -7z m1706 -39
c5 3 10 0 10 -7 0 -18 30 -36 54 -32 42 6 102 7 111 2 6 -2 40 -2 77 1 50 5
73 12 91 29 24 22 43 30 32 12 -3 -5 6 -17 20 -26 20 -13 25 -24 25 -58 0 -25
-4 -36 -8 -28 -6 9 -12 6 -20 -13 -6 -14 -19 -25 -27 -25 -9 0 -13 -4 -10 -10
3 -6 -1 -7 -9 -4 -29 11 -17 -13 13 -28 l30 -14 -35 -27 c-32 -26 -51 -23 -19
3 16 13 21 35 6 26 -5 -4 -11 -3 -14 1 -2 5 -2 2 -1 -4 2 -7 -3 -13 -10 -13
-7 0 -21 -9 -31 -20 -10 -11 -24 -20 -32 -20 -7 0 -16 -7 -20 -16 -7 -19 -47
-64 -57 -64 -3 0 1 11 9 24 16 24 16 25 -17 29 l-33 4 37 1 c30 2 39 8 57 38
25 41 26 51 7 35 -11 -9 -16 -9 -22 0 -5 8 -3 9 6 4 9 -6 10 -2 5 15 -5 15 -4
20 4 16 13 -9 14 4 1 24 -8 12 -13 11 -39 -8 -40 -29 -50 -28 -21 3 l23 25
-28 0 c-15 0 -34 -8 -42 -17 -13 -17 -14 -16 -8 5 9 33 -17 28 -54 -10 -17
-17 -31 -36 -31 -40 0 -5 -5 -6 -12 -2 -8 5 -7 10 4 18 23 18 27 40 11 61 -13
17 -15 17 -10 3 4 -10 2 -18 -3 -18 -6 0 -10 7 -10 15 0 8 -5 15 -11 15 -6 0
-8 -9 -4 -22 5 -20 4 -20 -5 -6 -6 11 -17 15 -28 11 -9 -3 -3 6 13 20 27 24
28 27 10 28 -11 1 -26 1 -34 0 -7 -2 -11 4 -9 11 3 7 15 13 28 13 13 0 25 6
27 13 3 6 0 12 -5 12 -5 0 -17 12 -26 28 l-17 27 20 -23 c11 -13 25 -21 31
-17z m-1592 14 c-23 -12 -78 -19 -78 -10 0 12 16 17 57 17 18 0 28 -3 21 -7z
m-98 -9 c0 -5 -2 -10 -4 -10 -3 0 -8 5 -11 10 -3 6 -1 10 4 10 6 0 11 -4 11
-10z m378 -24 c31 -20 52 -25 132 -28 93 -3 94 -3 100 22 l6 25 8 -22 c6 -18
15 -23 42 -23 21 0 33 -4 29 -10 -4 -6 -9 -8 -13 -6 -4 2 -15 -1 -25 -8 -16
-12 -16 -14 1 -33 11 -12 33 -20 62 -22 48 -3 60 -7 60 -21 0 -4 -13 -3 -30 3
-23 9 -33 8 -42 -1 -10 -10 -8 -14 9 -18 12 -4 29 -17 38 -31 14 -20 19 -22
31 -12 9 8 13 21 10 35 -4 13 -1 26 4 29 6 4 10 3 9 -2 -5 -26 2 -42 16 -36 9
3 15 2 13 -3 -1 -5 4 -31 11 -57 12 -41 12 -50 1 -57 -12 -7 -12 -13 -1 -37
12 -26 14 -27 21 -8 4 11 6 23 3 28 -2 4 1 7 7 7 12 0 18 -13 23 -49 5 -34 25
-38 33 -7 6 27 24 36 24 14 0 -9 4 -8 10 2 9 13 10 13 11 0 2 -27 -3 -45 -18
-62 -10 -11 -12 -18 -5 -18 7 0 11 -3 11 -7 -5 -32 3 -93 12 -93 6 0 9 7 6 15
-4 8 -2 17 3 20 6 4 10 14 10 24 0 12 10 20 30 24 16 4 38 15 48 25 19 19 20
19 33 1 17 -24 26 -24 33 -1 3 9 17 22 31 29 22 10 25 9 25 -7 0 -11 5 -22 10
-25 6 -4 8 -10 5 -15 -7 -11 16 -63 32 -73 7 -4 13 -14 13 -21 0 -9 9 -12 25
-8 14 2 25 11 25 19 0 10 6 12 20 8 14 -4 20 -2 18 6 -2 7 6 13 17 14 19 0 20
4 16 62 0 9 -4 13 -8 10 -3 -4 -12 -2 -20 4 -9 9 -13 8 -13 0 0 -6 -8 -11 -17
-11 -14 0 -15 2 -5 9 11 7 11 15 -2 46 -9 21 -24 44 -34 51 -15 12 -15 13 -1
14 9 0 21 -11 29 -24 7 -14 18 -22 26 -19 9 3 12 -2 9 -16 -3 -14 2 -21 13
-23 9 0 22 -2 27 -3 6 -2 20 -3 33 -4 17 -1 22 -7 22 -27 0 -19 4 -25 15 -20
9 3 15 0 15 -8 0 -8 7 -17 16 -20 19 -7 44 10 44 30 0 8 8 15 18 15 16 1 16 2
0 6 -10 2 -18 9 -18 15 0 6 -6 6 -15 -2 -16 -13 -45 -7 -45 10 0 6 10 15 23
20 12 5 16 9 9 9 -7 1 -10 5 -7 11 3 6 -1 7 -9 4 -9 -3 -16 -1 -16 5 0 6 5 11
11 11 5 0 7 5 3 11 -4 7 -23 9 -48 6 -22 -3 -32 -3 -22 0 18 5 18 6 -5 24
l-24 19 23 6 c12 4 22 10 22 15 0 5 7 9 15 9 8 0 15 -7 15 -16 0 -27 22 -10
49 39 29 55 39 59 37 15 -4 -62 -9 -60 148 -58 25 1 44 7 52 18 8 9 13 13 14
7 0 -19 -15 -33 -55 -49 -28 -12 -36 -19 -26 -25 10 -6 3 -18 -29 -47 -29 -28
-44 -52 -51 -84 -6 -25 -13 -54 -15 -65 -3 -11 -6 -29 -8 -40 -3 -19 -22 -116
-31 -161 -6 -27 -63 -40 -61 -15 1 9 -6 16 -14 16 -8 0 -14 -5 -13 -12 2 -7
-3 -10 -11 -7 -7 3 -30 -1 -50 -10 -34 -14 -35 -14 -23 5 6 10 15 19 19 19 5
0 8 10 8 23 1 20 2 20 11 4 12 -21 30 -13 23 11 -5 16 -5 16 6 0 13 -22 30
-23 30 -4 0 9 7 12 20 9 17 -5 18 -2 10 28 -6 19 -10 36 -11 39 0 3 -4 -4 -9
-15 l-9 -20 0 20 c-1 11 -8 32 -15 47 -9 16 -11 30 -5 33 11 8 12 35 1 35 -16
0 -29 -45 -21 -73 4 -17 4 -25 -3 -21 -5 3 -9 0 -7 -7 1 -8 1 -25 0 -39 -2
-24 -2 -24 -11 -3 -10 26 -40 22 -81 -11 -15 -12 -34 -26 -44 -31 -17 -10 -17
-13 -1 -43 21 -40 14 -42 -11 -2 -19 30 -19 30 -39 11 -11 -10 -38 -24 -60
-32 -21 -7 -45 -17 -51 -22 -21 -15 -15 3 15 42 53 70 14 120 -50 64 -12 -11
-18 -12 -24 -2 -5 9 -10 7 -15 -7 -7 -17 -8 -17 -8 -1 -1 24 -21 11 -21 -14 0
-22 0 -22 -34 -10 -18 7 -27 6 -35 -3 -6 -7 -30 -17 -54 -20 -23 -4 -64 -12
-92 -18 -81 -17 -174 -18 -168 -1 3 7 17 13 31 13 24 0 24 1 9 18 -25 27 -22
55 3 47 12 -4 27 -2 33 4 7 5 33 9 57 8 34 -2 44 -6 42 -17 -2 -11 3 -9 18 6
11 11 22 34 24 50 5 40 6 42 17 19 8 -18 8 -17 6 5 -1 15 -8 24 -16 22 -8 -2
-11 3 -8 12 4 9 2 18 -3 21 -6 4 -10 1 -10 -4 0 -20 -26 -11 -54 18 -35 36
-73 44 -131 26 -40 -11 -44 -11 -34 1 6 8 22 14 34 14 12 0 29 7 36 16 11 14
10 19 -8 34 -12 10 -20 20 -16 23 3 3 11 0 19 -7 7 -8 30 -13 51 -13 36 2 38
4 35 32 -5 58 -24 71 -55 41 -8 -8 -19 -11 -27 -6 -9 6 -7 11 11 20 35 19 39
31 21 56 -24 34 -35 29 -29 -11 7 -45 0 -44 -20 3 -9 20 -18 31 -20 25 -3 -10
-10 -10 -24 -2 -15 8 -26 5 -48 -11 -16 -11 -34 -20 -40 -20 -14 0 -34 -38
-26 -50 3 -5 -1 -7 -9 -4 -16 6 -12 23 24 93 11 22 20 43 20 46 0 3 -18 5 -40
5 -31 0 -40 -4 -40 -17 -1 -17 -1 -17 -11 0 -5 9 -21 17 -34 17 -14 0 -25 6
-25 13 0 22 -16 38 -33 31 -9 -3 -17 -14 -17 -24 0 -13 -6 -17 -19 -13 -11 3
-18 10 -15 17 7 17 -39 101 -56 102 -52 3 -55 4 -41 13 9 6 -3 11 -39 16 -64
9 -49 25 24 25 38 0 47 3 43 15 -5 11 0 13 23 8 19 -3 30 -1 30 6 0 19 38 12
78 -13z m-598 4 c0 -5 19 -11 43 -11 32 -2 35 -3 13 -6 -35 -6 -76 4 -76 17 0
6 5 10 10 10 6 0 10 -4 10 -10z m1850 -10 c0 -5 -2 -10 -4 -10 -3 0 -8 5 -11
10 -3 6 -1 10 4 10 6 0 11 -4 11 -10z m-1730 -20 c0 -5 -7 -7 -15 -4 -8 4 -12
10 -9 15 6 11 24 2 24 -11z m1440 5 c0 -8 -7 -15 -15 -15 -8 0 -15 7 -15 15 0
8 7 15 15 15 8 0 15 -7 15 -15z m-1511 -41 c24 -31 27 -66 7 -83 -30 -25 -92
65 -70 101 10 17 43 7 63 -18z m1186 16 c-3 -5 -13 -10 -21 -10 -8 0 -14 -10
-14 -25 0 -14 -5 -25 -11 -25 -6 0 -9 7 -5 15 3 8 0 15 -7 15 -16 1 34 39 51
40 7 0 10 -4 7 -10z m-801 -67 c3 -21 19 -64 34 -95 l29 -58 -46 -1 c-25 -1
-49 -1 -53 0 -4 0 -5 -6 -1 -15 4 -11 15 -15 35 -12 26 4 32 1 40 -24 7 -21
19 -31 41 -35 31 -6 31 -6 6 -15 -24 -9 -24 -10 -4 -24 11 -9 19 -19 18 -24
-2 -5 4 -7 12 -3 12 4 13 8 4 19 -10 12 -9 13 5 8 11 -4 15 -13 11 -25 -4 -11
-1 -21 7 -23 7 -3 48 -15 91 -27 57 -17 76 -27 72 -37 -4 -11 3 -13 29 -10 46
5 38 -10 -26 -50 l-52 -31 -53 55 c-29 30 -58 52 -63 49 -6 -4 -8 -11 -5 -16
4 -5 -1 -9 -10 -9 -11 0 -15 5 -12 14 3 8 0 22 -7 31 -12 16 -16 15 -70 -10
-31 -15 -59 -25 -60 -24 -27 32 -35 92 -10 82 12 -4 14 0 8 21 -3 14 -7 37 -8
51 0 14 -10 29 -23 36 -13 7 -23 16 -23 21 0 10 13 10 26 1 5 -5 1 0 -9 10
-11 9 -18 17 -16 18 2 0 24 3 49 5 47 6 91 23 58 24 -10 0 -18 5 -18 11 0 5 5
7 10 4 6 -3 10 -1 10 4 0 6 -7 11 -15 11 -31 0 -54 37 -49 77 11 76 26 82 38
16z m732 -40 c13 -13 27 -23 31 -23 12 0 10 -74 -2 -82 -5 -4 -32 -8 -59 -8
l-49 0 7 38 c3 20 6 59 6 86 l0 49 22 -19 c11 -10 31 -29 44 -41z m614 27 c0
-5 -5 -10 -11 -10 -5 0 -7 5 -4 10 3 6 8 10 11 10 2 0 4 -4 4 -10z m32 -22
c-7 -7 -12 -8 -12 -2 0 14 12 26 19 19 2 -3 -1 -11 -7 -17z m85 -4 c-3 -3 -12
-4 -19 -1 -8 3 -5 6 6 6 11 1 17 -2 13 -5z m-892 -14 c3 -5 1 -10 -4 -10 -6 0
-11 5 -11 10 0 6 2 10 4 10 3 0 8 -4 11 -10z m1014 -40 c0 -9 -4 -8 -9 5 -5
11 -9 27 -9 35 0 9 4 8 9 -5 5 -11 9 -27 9 -35z m201 -41 c0 -5 -4 -9 -10 -9
-5 0 -10 7 -10 16 0 8 5 12 10 9 6 -3 10 -10 10 -16z m-1580 -2 c0 -7 -9 -13
-19 -13 -15 0 -17 3 -9 13 6 7 14 13 19 13 5 0 9 -6 9 -13z m956 -3 c-3 -9 -6
-20 -6 -25 0 -5 -7 -9 -16 -9 -11 0 -14 5 -10 16 3 9 6 20 6 25 0 5 7 9 16 9
11 0 14 -5 10 -16z m-183 -1 c-7 -2 -21 -2 -30 0 -10 3 -4 5 12 5 17 0 24 -2
18 -5z m50 0 c-7 -2 -19 -2 -25 0 -7 3 -2 5 12 5 14 0 19 -2 13 -5z m762 -23
c3 -5 1 -10 -4 -10 -6 0 -11 5 -11 10 0 6 2 10 4 10 3 0 8 -4 11 -10z m-1585
-21 c0 -6 -4 -7 -10 -4 -5 3 -10 11 -10 16 0 6 5 7 10 4 6 -3 10 -11 10 -16z
m-125 -10 c11 -17 0 -20 -21 -4 -17 13 -17 14 -2 15 9 0 20 -5 23 -11z m1101
-15 c17 -14 17 -15 1 -10 -10 3 -23 6 -28 6 -5 0 -9 5 -9 10 0 14 13 12 36 -6z
m-1352 -20 c4 -12 2 -12 -14 -4 -11 6 -20 15 -20 20 0 14 28 1 34 -16z m1721
16 c-3 -5 -10 -10 -16 -10 -5 0 -9 5 -9 10 0 6 7 10 16 10 8 0 12 -4 9 -10z
m389 -15 c-6 -16 -24 -21 -24 -7 0 11 11 22 21 22 5 0 6 -7 3 -15z m-1394 -4
c0 -6 -4 -13 -10 -16 -5 -3 -10 1 -10 9 0 9 5 16 10 16 6 0 10 -4 10 -9z
m1196 0 c-3 -5 -15 -7 -26 -4 -28 7 -25 13 6 13 14 0 23 -4 20 -9z m-1463 -15
c4 -10 0 -14 -13 -13 -14 1 -16 4 -8 14 13 16 15 16 21 -1z m137 -6 c0 -5 -5
-10 -11 -10 -5 0 -7 5 -4 10 3 6 8 10 11 10 2 0 4 -4 4 -10z m510 -20 c0 -5
-4 -10 -10 -10 -5 0 -10 5 -10 10 0 6 5 10 10 10 6 0 10 -4 10 -10z m-1165
-20 c10 -11 16 -20 13 -20 -3 0 -13 9 -23 20 -10 11 -16 20 -13 20 3 0 13 -9
23 -20z m660 10 c3 -5 -1 -10 -10 -10 -9 0 -13 5 -10 10 3 6 8 10 10 10 2 0 7
-4 10 -10z m423 3 c-10 -2 -18 -9 -18 -14 0 -5 -4 -9 -10 -9 -5 0 -7 7 -4 15
4 8 16 14 28 14 16 -1 17 -2 4 -6z m652 -78 c-7 -8 -17 -15 -23 -15 -5 0 -2 9
8 20 21 23 35 19 15 -5z m-921 -66 c14 -32 7 -53 -10 -29 -9 13 -10 13 -6 0 3
-9 -2 -25 -10 -35 -14 -19 -14 -17 -7 15 4 19 7 45 6 58 -2 31 11 27 27 -9z
m891 11 c0 -5 -2 -10 -4 -10 -3 0 -8 5 -11 10 -3 6 -1 10 4 10 6 0 11 -4 11
-10z m-1053 -6 c-3 -3 -12 -4 -19 -1 -8 3 -5 6 6 6 11 1 17 -2 13 -5z m40 0
c-3 -3 -12 -4 -19 -1 -8 3 -5 6 6 6 11 1 17 -2 13 -5z m1013 -24 c0 -5 -5 -10
-11 -10 -5 0 -7 5 -4 10 3 6 8 10 11 10 2 0 4 -4 4 -10z m-1260 -60 c0 -5 -2
-10 -4 -10 -3 0 -8 5 -11 10 -3 6 -1 10 4 10 6 0 11 -4 11 -10z"/>
<path d="M2760 1171 c0 -5 -3 -16 -6 -25 -5 -13 2 -16 35 -16 23 0 54 -8 69
-17 21 -14 24 -14 15 -2 -15 19 -6 57 16 62 9 3 -17 5 -56 6 -40 0 -73 -3 -73
-8z"/>
<path d="M2715 1160 c-3 -6 1 -7 9 -4 18 7 21 14 7 14 -6 0 -13 -4 -16 -10z"/>
<path d="M1326 1149 c21 -23 37 -24 60 -2 15 16 20 16 62 1 38 -14 48 -15 64
-3 30 20 9 25 -102 24 -100 0 -101 -1 -84 -20z"/>
<path d="M1210 1141 c0 -7 18 -46 37 -80 4 -7 53 29 53 39 0 5 -13 16 -29 25
-23 11 -31 12 -34 2 -3 -7 -6 -5 -6 6 -1 17 -21 25 -21 8z"/>
<path d="M1475 1110 c3 -5 8 -10 11 -10 2 0 4 5 4 10 0 6 -5 10 -11 10 -5 0
-7 -4 -4 -10z"/>
<path d="M1655 960 c3 -5 10 -10 16 -10 5 0 9 5 9 10 0 6 -7 10 -16 10 -8 0
-12 -4 -9 -10z"/>
<path d="M2310 801 c0 -5 5 -13 10 -16 6 -3 10 -2 10 4 0 5 -4 13 -10 16 -5 3
-10 2 -10 -4z"/>
<path d="M2008 722 c-10 -2 -18 -8 -18 -13 0 -13 27 -11 35 2 9 13 4 16 -17
11z"/>
<path d="M2258 713 c-16 -15 -16 -18 4 -35 12 -10 26 -18 32 -17 6 0 5 3 -2 6
-10 4 -9 9 5 20 17 13 16 14 -10 8 -19 -4 -26 -2 -22 5 3 5 13 10 21 10 8 0
14 5 14 10 0 16 -24 12 -42 -7z"/>
<path d="M2210 640 c0 -13 20 -13 40 0 12 8 9 10 -12 10 -16 0 -28 -4 -28 -10z"/>
<path d="M2244 608 c-19 -23 -19 -23 1 -7 11 10 29 19 40 22 19 4 19 5 -1 6
-11 0 -29 -9 -40 -21z"/>
<path d="M1884 578 c0 -11 8 -18 18 -18 11 0 18 7 18 18 0 10 -7 18 -18 18
-10 0 -18 -8 -18 -18z"/>
<path d="M1995 3550 c3 -5 13 -10 21 -10 26 0 115 -52 131 -77 18 -27 109 -83
136 -83 10 0 17 8 17 19 0 11 3 26 6 35 5 12 0 16 -17 16 -28 1 -135 70 -131
85 5 14 -33 23 -106 24 -40 1 -61 -3 -57 -9z"/>
<path d="M1847 3515 c-37 -15 -20 -30 45 -40 29 -4 58 -17 73 -31 32 -29 45
-31 38 -4 -6 24 -62 50 -104 50 -29 0 -40 15 -17 22 7 3 8 7 3 10 -6 3 -23 0
-38 -7z"/>
<path d="M1676 3464 c-57 -21 -69 -32 -50 -51 15 -16 33 -15 114 8 58 17 56
15 35 39 -21 23 -45 24 -99 4z"/>
<path d="M1815 3470 c-3 -5 -1 -10 4 -10 6 0 11 5 11 10 0 6 -2 10 -4 10 -3 0
-8 -4 -11 -10z"/>
<path d="M1080 3394 c-363 -241 -622 -624 -709 -1046 -24 -115 -38 -295 -36
-468 1 -69 -2 -128 -8 -131 -5 -4 -5 -14 2 -27 6 -11 11 -31 11 -44 0 -13 8
-34 17 -47 9 -14 12 -21 6 -18 -6 4 2 -18 19 -48 16 -30 26 -60 22 -67 -5 -10
-4 -10 5 -2 9 8 9 18 0 40 -6 16 -20 71 -31 123 -10 52 -24 103 -29 113 -6 12
-6 18 1 18 5 0 10 7 10 16 0 8 5 12 10 9 11 -7 14 8 3 19 -23 22 9 146 38 146
8 0 16 6 17 13 0 6 3 44 6 83 15 187 26 259 55 337 16 45 32 92 36 105 3 12
10 22 14 22 5 0 14 15 22 33 21 53 79 138 89 132 6 -3 10 2 10 13 0 32 45 72
80 72 17 0 40 5 50 10 17 9 18 13 6 43 -21 49 4 156 51 219 19 27 33 51 30 54
-8 8 -87 -27 -87 -39 0 -6 -3 -8 -6 -4 -4 3 16 33 42 66 l49 60 60 -6 c59 -5
61 -5 85 27 14 18 31 39 38 46 6 7 12 17 12 23 0 6 6 11 13 11 6 1 0 8 -15 16
-33 17 -37 29 -7 21 12 -3 22 0 26 9 3 8 18 21 34 29 29 15 53 48 47 66 -2 5
-41 -16 -88 -47z"/>
<path d="M2012 3258 c-38 -24 -37 -33 2 -18 27 10 83 13 59 3 -22 -8 -14 -21
16 -28 31 -7 101 17 101 34 0 13 -66 31 -110 30 -19 0 -50 -10 -68 -21z"/>
<path d="M1605 3230 c-38 -19 -39 -20 -9 -16 17 3 35 1 40 -4 11 -11 54 -2 54
11 0 7 -32 30 -42 29 -2 0 -21 -9 -43 -20z"/>
<path d="M1695 3190 c-3 -5 -1 -10 4 -10 6 0 11 -6 11 -14 0 -22 21 -31 32
-13 5 9 15 14 23 11 8 -4 15 -1 15 5 0 22 -73 40 -85 21z"/>
<path d="M2190 3185 c0 -10 10 -15 30 -15 32 0 40 14 14 24 -27 10 -44 7 -44
-9z"/>
<path d="M1625 3160 c-17 -32 -20 -60 -6 -60 11 0 21 25 21 51 0 11 10 24 23
29 l22 9 -22 0 c-15 1 -28 -9 -38 -29z"/>
<path d="M2020 3162 c-26 -10 -49 -27 -55 -40 -5 -12 -25 -28 -42 -34 -18 -7
-33 -18 -33 -25 0 -7 -4 -13 -10 -13 -5 0 -10 -6 -10 -14 0 -7 -7 -19 -15 -26
-8 -7 -14 -20 -13 -28 2 -9 -13 -24 -37 -36 -53 -27 -52 -26 -35 -36 9 -5 18
-4 24 5 16 21 90 34 186 35 56 0 80 3 70 9 -8 6 -17 8 -21 5 -4 -2 -12 3 -19
11 -7 8 -16 13 -20 10 -5 -3 -11 -1 -15 5 -9 15 -45 12 -45 -4 0 -14 -29 -31
-37 -22 -11 11 11 48 33 56 14 6 32 23 42 39 17 31 70 54 94 40 19 -10 58 0
58 15 0 19 -21 35 -38 29 -12 -5 -14 -1 -10 15 7 26 6 26 -52 4z"/>
<path d="M1816 3151 c-16 -3 -32 -13 -34 -21 -4 -12 -3 -13 10 -2 9 7 22 10
31 6 8 -3 18 0 22 6 10 15 5 17 -29 11z"/>
<path d="M1725 3110 c-13 -5 -14 -9 -5 -9 8 0 24 4 35 9 13 5 14 9 5 9 -8 0
-24 -4 -35 -9z"/>
<path d="M2312 2948 c2 -36 7 -44 25 -46 l23 -3 -17 45 c-22 58 -35 59 -31 4z"/>
<path d="M972 2951 c-22 -16 -23 -23 -20 -108 3 -55 9 -97 17 -107 7 -9 10
-23 7 -32 -4 -9 7 -34 26 -61 l33 -46 5 59 5 59 24 -38 c13 -21 24 -52 25 -70
1 -30 -1 -32 -30 -30 -27 2 -32 -1 -37 -23 -3 -16 1 -28 9 -31 8 -3 14 -11 14
-19 0 -8 9 -14 20 -14 16 0 19 5 14 28 -4 19 -1 32 10 41 9 8 16 10 16 6 0 -4
7 -2 15 5 10 9 15 9 15 1 0 -17 17 -13 24 6 4 9 1 20 -6 24 -9 6 -8 10 5 15 9
3 17 14 17 24 0 28 11 51 21 44 11 -6 12 29 2 40 -4 4 -7 19 -8 34 0 22 -5 28
-27 30 -23 3 -26 6 -18 21 7 14 4 21 -13 30 -13 7 -32 14 -42 15 -15 2 -20 11
-20 33 0 23 -4 29 -15 25 -13 -5 -13 -3 -1 11 10 13 10 17 1 17 -7 0 -10 6 -7
13 7 19 -55 18 -81 -2z m18 -116 c0 -8 -4 -15 -10 -15 -5 0 -10 7 -10 15 0 8
5 15 10 15 6 0 10 -7 10 -15z m14 -86 c-8 -13 -24 -1 -24 18 0 13 3 13 15 3 8
-7 12 -16 9 -21z"/>
<path d="M2480 2959 c0 -5 5 -7 10 -4 6 3 10 8 10 11 0 2 -4 4 -10 4 -5 0 -10
-5 -10 -11z"/>
<path d="M1171 2931 c-11 -7 -11 -9 0 -14 12 -5 11 -7 -1 -16 -11 -8 -12 -13
-3 -22 15 -15 51 -2 58 23 8 23 -9 47 -19 29 -4 -6 -13 -11 -19 -11 -7 0 -6 4
3 10 8 5 11 10 5 10 -5 0 -16 -4 -24 -9z m24 -41 c-3 -5 -11 -10 -16 -10 -6 0
-7 5 -4 10 3 6 11 10 16 10 6 0 7 -4 4 -10z"/>
<path d="M2160 2920 c0 -5 5 -10 10 -10 6 0 10 5 10 10 0 6 -4 10 -10 10 -5 0
-10 -4 -10 -10z"/>
<path d="M1110 2910 c19 -13 30 -13 30 0 0 6 -10 10 -22 10 -19 0 -20 -2 -8
-10z"/>
<path d="M1703 2908 c-13 -6 -23 -15 -23 -20 0 -4 -15 -17 -32 -28 -31 -19
-31 -20 -8 -18 14 2 28 11 32 20 4 10 22 27 40 38 35 21 29 26 -9 8z"/>
<path d="M2555 2904 c-25 -12 -26 -14 -5 -9 14 4 33 7 43 6 9 0 15 4 12 10 -8
11 -13 11 -50 -7z"/>
<path d="M2388 2903 c7 -3 16 -2 19 1 4 3 -2 6 -13 5 -11 0 -14 -3 -6 -6z"/>
<path d="M2280 2870 c0 -11 5 -20 10 -20 6 0 10 9 10 20 0 11 -4 20 -10 20 -5
0 -10 -9 -10 -20z"/>
<path d="M2322 2868 c3 -7 18 -14 34 -16 28 -3 28 -3 9 12 -24 19 -48 21 -43
4z"/>
<path d="M2395 2870 c3 -5 8 -10 11 -10 2 0 4 5 4 10 0 6 -5 10 -11 10 -5 0
-7 -4 -4 -10z"/>
<path d="M2435 2870 c-3 -5 -1 -10 4 -10 6 0 11 5 11 10 0 6 -2 10 -4 10 -3 0
-8 -4 -11 -10z"/>
<path d="M2132 2858 c-20 -20 -13 -43 18 -57 46 -20 89 -59 109 -100 16 -30
73 -89 154 -156 9 -8 17 -26 17 -39 0 -14 5 -28 10 -31 21 -13 9 -57 -27 -101
l-37 -44 -68 0 c-64 0 -69 2 -113 40 -49 42 -75 49 -94 26 -17 -20 -56 -28
-86 -16 -26 10 -26 9 -20 -22 10 -44 44 -95 95 -143 42 -39 44 -35 8 17 -14
20 -15 28 -6 31 10 4 9 8 -2 17 -12 8 -7 9 21 4 20 -3 46 -1 56 5 26 13 87
-16 152 -75 40 -36 56 -44 87 -44 66 0 159 -72 199 -153 15 -30 28 -43 52 -49
18 -5 38 -17 46 -28 9 -13 31 -21 68 -26 32 -4 63 -15 76 -27 l22 -20 8 29 c4
16 8 54 8 84 l0 55 -65 6 -65 6 63 1 c54 2 63 4 60 19 -4 23 -32 28 -50 9 -9
-8 -24 -13 -34 -10 -11 3 -48 8 -83 12 l-64 7 29 15 c16 8 31 16 33 17 2 1 -2
10 -10 19 -12 15 -11 16 11 9 14 -4 30 -10 36 -12 16 -6 37 24 30 43 -3 9 -15
18 -26 21 -11 3 -20 10 -20 15 0 5 9 6 20 3 28 -9 26 13 -2 25 -18 7 -19 9 -5
9 19 1 24 21 5 21 -10 0 -10 2 0 9 11 6 10 10 -4 15 -12 5 -25 -2 -41 -21 -12
-15 -31 -37 -42 -48 -11 -11 -21 -30 -23 -42 -2 -15 -7 -20 -15 -15 -10 6 -8
25 5 83 10 41 17 80 14 87 -2 6 -20 20 -40 29 -35 17 -36 17 -12 24 16 4 36 0
55 -11 17 -10 52 -30 78 -45 51 -29 71 -27 43 3 -15 17 -15 22 0 57 11 28 18
35 27 26 24 -24 36 -13 24 24 -6 21 -17 35 -26 35 -13 0 -13 2 -3 9 19 12 -10
81 -35 82 -10 0 -13 3 -5 6 17 7 15 27 -9 82 -15 36 -30 54 -57 67 -20 11 -39
22 -40 27 -2 4 -8 5 -12 2 -5 -3 -21 7 -37 21 -15 15 -21 24 -13 20 10 -5 9
-2 -2 7 -10 8 -36 13 -60 12 -24 -1 -65 -2 -92 -3 -37 -2 -47 -5 -43 -16 9
-22 -5 -28 -25 -9 -17 15 -18 15 -18 -15 0 -20 8 -36 23 -47 l22 -17 -22 7
c-12 3 -36 19 -53 35 -17 16 -46 34 -64 40 -19 6 -37 17 -39 24 -4 9 -15 12
-33 8 -18 -3 -25 -1 -20 6 3 6 2 13 -4 17 -6 4 -8 11 -5 16 8 13 1 11 -13 -3z
m428 -58 c0 -5 -2 -10 -4 -10 -3 0 -8 5 -11 10 -3 6 -1 10 4 10 6 0 11 -4 11
-10z m-135 -30 c3 -5 1 -10 -4 -10 -6 0 -11 5 -11 10 0 6 2 10 4 10 3 0 8 -4
11 -10z m195 -70 c0 -5 -4 -10 -10 -10 -5 0 -10 5 -10 10 0 6 5 10 10 10 6 0
10 -4 10 -10z m-146 -41 c-3 -5 -10 -7 -15 -3 -5 3 -7 10 -3 15 3 5 10 7 15 3
5 -3 7 -10 3 -15z m126 -4 c0 -8 -4 -15 -10 -15 -5 0 -7 7 -4 15 4 8 8 15 10
15 2 0 4 -7 4 -15z m120 -409 c0 -2 -7 -6 -15 -10 -8 -3 -15 -1 -15 4 0 6 7
10 15 10 8 0 15 -2 15 -4z"/>
<path d="M2240 2850 c-8 -5 -10 -10 -5 -10 6 0 17 5 25 10 8 5 11 10 5 10 -5
0 -17 -5 -25 -10z"/>
<path d="M2523 2853 c-24 -2 -43 -8 -43 -14 0 -11 11 -11 74 -3 25 4 46 11 46
15 0 5 -8 8 -17 7 -10 -1 -37 -3 -60 -5z"/>
<path d="M2338 2828 c9 -9 15 -9 24 0 9 9 7 12 -12 12 -19 0 -21 -3 -12 -12z"/>
<path d="M2408 2833 c7 -3 16 -2 19 1 4 3 -2 6 -13 5 -11 0 -14 -3 -6 -6z"/>
<path d="M1821 2820 c-165 -35 -303 -283 -318 -570 -5 -92 -2 -119 22 -220 15
-63 36 -138 46 -167 l18 -52 -32 -3 c-28 -3 -32 -7 -32 -33 0 -41 27 -52 167
-66 l115 -12 48 27 c28 15 52 23 57 18 5 -5 -6 -16 -26 -26 -40 -19 -48 -31
-13 -20 38 12 132 80 159 116 26 35 47 95 28 83 -5 -3 -11 -18 -11 -33 l-1
-27 -8 30 -8 30 -1 -27 c0 -16 -6 -28 -12 -28 -5 0 -7 5 -3 12 4 6 3 8 -3 5
-6 -4 -8 -17 -6 -31 3 -13 0 -27 -6 -30 -7 -4 -9 -1 -5 7 3 8 1 18 -5 22 -8 4
-6 15 3 33 39 75 28 163 -34 285 -40 80 -167 253 -251 343 -53 57 -65 87 -55
139 12 60 89 115 163 115 11 0 55 9 98 20 101 26 115 25 161 -7 21 -14 59 -34
84 -44 67 -26 72 -42 26 -86 -21 -21 -36 -32 -32 -25 13 22 -32 13 -50 -10
l-16 -23 5 24 c4 18 -2 32 -25 54 l-31 31 5 -36 c2 -25 0 -34 -8 -31 -19 7
-82 -95 -95 -154 -17 -76 -3 -112 95 -245 106 -143 118 -168 124 -250 7 -97
-11 -151 -70 -212 -26 -27 -48 -52 -48 -54 0 -8 241 8 302 20 69 13 86 28 70
63 -10 20 -19 25 -51 25 -39 0 -40 1 -55 53 -26 89 -109 213 -233 348 -34 37
-69 82 -78 98 -20 39 -32 121 -17 121 6 0 13 -4 16 -9 12 -19 61 -18 102 2 47
22 41 24 119 -38 32 -25 45 -29 98 -29 39 1 63 6 65 14 2 6 17 26 32 44 26 29
27 34 14 56 -7 14 -13 35 -14 47 0 13 -12 29 -32 42 -43 26 -109 95 -141 147
-28 45 -56 68 -126 104 -36 18 -66 23 -145 26 -56 2 -121 -1 -145 -6z m274
-278 c-6 -6 -34 11 -39 24 -4 11 0 10 18 -3 13 -10 23 -19 21 -21z m-511 -78
c-36 -141 -40 -228 -16 -346 11 -53 34 -123 50 -155 36 -72 46 -112 34 -143
l-9 -25 -15 30 c-24 47 -65 183 -82 274 -20 103 -20 199 -2 288 15 67 56 187
62 180 2 -2 -8 -48 -22 -103z m754 80 c35 -17 50 -34 30 -34 -13 0 -79 49 -67
50 3 0 20 -7 37 -16z m-350 -54 c-1 -34 17 -60 43 -60 10 0 21 -4 24 -10 8
-13 -6 -13 -39 0 -31 12 -49 45 -42 76 9 33 15 30 14 -6z m2 -681 c0 -5 -6 -7
-12 -3 -10 6 -10 4 0 -7 14 -16 16 -33 2 -24 -5 3 -10 2 -10 -3 0 -12 -46 -33
-54 -24 -7 6 53 72 66 72 4 0 8 -5 8 -11z"/>
<path d="M1935 1770 c-3 -5 -2 -10 4 -10 5 0 13 5 16 10 3 6 2 10 -4 10 -5 0
-13 -4 -16 -10z"/>
<path d="M767 2779 c-13 -8 -15 -14 -7 -29 5 -10 10 -29 10 -41 0 -19 2 -20
17 -8 14 12 16 12 11 -1 -3 -8 0 -20 7 -27 10 -9 16 -8 29 6 25 27 20 48 -5
25 -22 -19 -22 -19 -10 3 16 32 13 52 -4 29 -18 -23 -18 -21 -6 22 8 27 7 32
-7 32 -9 0 -25 -5 -35 -11z"/>
<path d="M2300 2780 c0 -5 5 -10 11 -10 5 0 7 5 4 10 -3 6 -8 10 -11 10 -2 0
-4 -4 -4 -10z"/>
<path d="M2753 2762 c-9 -15 -6 -28 16 -68 36 -65 55 -94 61 -94 5 0 5 88 0
103 -1 4 -3 10 -4 15 -3 14 -25 47 -26 37 0 -5 -5 -3 -10 5 -6 10 -10 11 -10
3 0 -7 -4 -13 -10 -13 -5 0 -7 7 -4 15 8 21 1 19 -13 -3z"/>
<path d="M1211 2748 c-1 -16 4 -28 9 -28 12 0 12 8 0 35 -8 18 -9 17 -9 -7z"/>
<path d="M830 2655 c-7 -8 -9 -15 -4 -16 5 -1 -2 -4 -16 -8 -19 -5 -33 -26
-61 -91 -21 -47 -38 -87 -38 -90 -2 -11 68 2 77 14 11 13 64 197 59 203 -2 2
-10 -3 -17 -12z m-40 -105 c0 -5 -4 -10 -10 -10 -5 0 -10 5 -10 10 0 6 5 10
10 10 6 0 10 -4 10 -10z m-15 -29 c3 -5 1 -12 -5 -16 -5 -3 -10 1 -10 9 0 18
6 21 15 7z"/>
<path d="M855 2624 c-8 -20 -19 -52 -24 -72 -22 -88 -22 -92 -6 -92 9 0 15 9
15 25 0 29 0 29 47 10 38 -16 119 -20 127 -6 3 4 -14 22 -39 40 -24 17 -47 41
-50 52 -4 11 -16 24 -28 29 -19 8 -19 9 -3 9 12 1 16 6 12 17 -3 9 -6 18 -6
20 0 2 -7 4 -15 4 -8 0 -21 -16 -30 -36z"/>
<path d="M2864 2632 c3 -6 0 -12 -6 -15 -7 -2 -10 -8 -6 -12 4 -5 17 -4 28 1
20 9 20 9 -1 22 -12 8 -18 9 -15 4z"/>
<path d="M2870 2582 c-8 -4 -15 -18 -14 -32 2 -70 2 -70 39 -70 28 0 33 3 28
18 -6 16 -5 16 13 0 25 -22 65 -27 72 -9 3 8 0 11 -7 7 -7 -5 -11 2 -11 20 0
27 0 27 -22 8 -12 -10 -19 -14 -15 -8 3 6 -3 25 -13 42 -19 31 -39 38 -70 24z"/>
<path d="M3020 2512 c0 -35 3 -42 19 -42 18 0 19 3 9 33 -17 51 -28 55 -28 9z"/>
<path d="M2816 2485 c4 -16 13 -47 21 -69 17 -50 17 -80 -1 -48 -12 23 -13 23
-36 4 -18 -14 -20 -21 -10 -27 8 -5 11 -4 7 2 -4 6 0 14 9 17 12 4 15 0 13
-17 -4 -24 7 -47 21 -47 4 0 6 9 3 20 -3 11 0 20 6 20 6 0 10 -3 9 -7 -6 -28
17 -64 46 -72 17 -5 25 -10 18 -10 -7 -1 -10 -6 -7 -12 4 -5 0 -18 -9 -28 -16
-17 -16 -20 0 -35 16 -16 19 -15 55 24 45 48 49 64 14 58 -14 -3 -25 -1 -25 3
0 5 5 9 10 9 19 0 10 49 -12 64 -12 9 -19 18 -16 22 4 3 16 -4 27 -15 26 -26
44 -27 38 -3 -14 48 -17 92 -7 92 22 0 8 19 -21 29 -43 15 -96 14 -103 -1 -4
-10 -7 -9 -15 2 -5 8 -17 24 -25 35 -16 19 -16 19 -10 -10z"/>
<path d="M3039 2429 c24 -23 35 -21 25 5 -3 9 -16 16 -27 16 -20 0 -20 0 2
-21z"/>
<path d="M730 2423 c0 -15 -2 -16 -10 -3 -12 19 -15 15 -33 -50 -17 -58 -15
-67 18 -70 38 -4 43 0 55 53 6 28 14 60 17 70 3 13 -2 17 -21 17 -18 0 -26 -5
-26 -17z"/>
<path d="M3087 2420 c5 -20 63 -56 63 -40 0 5 -5 12 -11 16 -8 4 -7 9 2 15 7
4 10 11 6 15 -4 4 -17 -1 -28 -12 -21 -19 -22 -19 -15 4 5 16 3 22 -7 22 -10
0 -13 -7 -10 -20z"/>
<path d="M3110 2311 c0 -12 5 -21 10 -21 6 0 10 6 10 14 0 8 -4 18 -10 21 -5
3 -10 -3 -10 -14z"/>
<path d="M652 2258 c-19 -61 -23 -116 -10 -120 9 -3 8 -10 -5 -22 -23 -23 -24
-91 -1 -82 9 3 20 6 25 6 6 0 8 4 4 9 -3 5 8 19 25 31 16 12 30 25 30 29 0 4
-15 15 -32 24 -31 16 -31 17 -8 16 55 -2 55 -2 56 64 1 66 -5 77 -48 77 -21 0
-28 -6 -36 -32z"/>
<path d="M617 2254 c-11 -14 -13 -24 -6 -24 6 0 8 -7 5 -16 -3 -8 -2 -13 3 -9
10 5 26 64 19 70 -1 2 -11 -8 -21 -21z"/>
<path d="M3000 2190 c-14 -11 -21 -20 -16 -20 6 0 1 -7 -10 -15 -17 -15 -16
-15 12 -1 17 8 34 23 38 32 9 24 4 25 -24 4z"/>
<path d="M1980 2184 c0 -6 7 -19 16 -30 14 -18 14 -18 3 6 -14 31 -19 36 -19
24z"/>
<path d="M600 2168 c0 -2 -4 -18 -9 -36 -9 -30 -8 -31 10 -22 20 11 26 45 9
55 -5 3 -10 5 -10 3z"/>
<path d="M3129 2148 c7 -10 9 -18 5 -18 -10 0 -6 -90 5 -91 96 -11 101 -10 82
20 -8 12 -12 13 -26 1 -14 -12 -15 -10 -6 13 9 22 7 28 -9 37 -17 9 -20 7 -20
-12 0 -13 -5 -30 -10 -38 -7 -10 -8 -1 -4 30 5 37 3 49 -12 60 -17 14 -18 14
-5 -2z"/>
<path d="M1980 2131 c0 -6 4 -13 10 -16 6 -3 7 1 4 9 -7 18 -14 21 -14 7z"/>
<path d="M2780 2120 c0 -5 5 -10 10 -10 6 0 10 5 10 10 0 6 -4 10 -10 10 -5 0
-10 -4 -10 -10z"/>
<path d="M2720 2100 c0 -5 12 -10 28 -10 21 0 24 2 12 10 -20 13 -40 13 -40 0z"/>
<path d="M2010 2096 c0 -2 7 -7 16 -10 8 -3 12 -2 9 4 -6 10 -25 14 -25 6z"/>
<path d="M593 2078 c-11 -18 -11 -59 0 -55 10 3 21 67 13 67 -3 0 -8 -6 -13
-12z"/>
<path d="M2014 2054 c3 -9 6 -22 6 -29 0 -8 7 -11 20 -8 12 3 20 0 20 -8 0 -7
2 -10 5 -7 3 3 -1 20 -9 39 -14 31 -15 32 -16 9 -1 -25 -1 -25 -10 -2 -5 12
-12 22 -16 22 -3 0 -3 -7 0 -16z"/>
<path d="M3070 2056 c0 -2 7 -6 15 -10 8 -3 15 -1 15 4 0 6 -7 10 -15 10 -8 0
-15 -2 -15 -4z"/>
<path d="M2900 2010 c0 -11 2 -20 4 -20 2 0 6 9 9 20 3 11 1 20 -4 20 -5 0 -9
-9 -9 -20z"/>
<path d="M3070 2016 c0 -2 7 -6 15 -10 8 -3 15 -1 15 4 0 6 -7 10 -15 10 -8 0
-15 -2 -15 -4z"/>
<path d="M3132 1978 c3 -42 3 -43 38 -40 19 1 49 5 67 8 30 4 31 6 22 33 -11
30 -38 41 -101 41 -28 0 -29 -1 -26 -42z"/>
<path d="M629 1996 c6 -7 7 -17 3 -21 -4 -5 0 -6 9 -2 11 3 16 0 15 -10 0 -9
4 -18 11 -20 9 -3 9 4 1 29 -7 23 -17 34 -30 35 -15 2 -17 -1 -9 -11z"/>
<path d="M688 1985 c5 -29 22 -44 22 -20 0 9 4 14 9 10 5 -3 13 0 17 6 4 7 3
9 -4 5 -6 -3 -17 1 -25 9 -21 21 -25 19 -19 -10z"/>
<path d="M2046 1974 c-8 -22 -8 -54 2 -54 4 0 14 5 22 10 12 8 12 12 2 18 -7
5 -10 16 -6 25 3 9 2 17 -4 17 -5 0 -13 -7 -16 -16z"/>
<path d="M2944 1964 c-13 -19 -14 -28 -5 -37 8 -8 11 -8 11 2 0 7 3 10 8 8 4
-3 7 8 7 24 0 16 -1 29 -2 29 -2 0 -10 -11 -19 -26z"/>
<path d="M3390 1980 c0 -5 7 -10 16 -10 8 0 12 5 9 10 -3 6 -10 10 -16 10 -5
0 -9 -4 -9 -10z"/>
<path d="M3387 1943 c-4 -3 -7 -13 -7 -22 1 -13 3 -13 11 2 11 19 8 33 -4 20z"/>
<path d="M620 1921 c0 -5 7 -11 14 -14 10 -4 13 -1 9 9 -6 15 -23 19 -23 5z"/>
<path d="M3173 1922 c-24 -4 -29 -28 -14 -67 7 -16 9 -13 15 18 5 28 12 37 26
37 11 0 20 4 20 8 0 9 -10 10 -47 4z"/>
<path d="M3198 1870 c-3 -16 -3 -30 -2 -30 1 0 12 14 24 30 21 29 21 30 2 30
-14 0 -21 -8 -24 -30z"/>
<path d="M643 1883 c-19 -7 -16 -31 6 -43 24 -12 41 -13 41 -1 0 16 -35 49
-47 44z m27 -38 c0 -5 -5 -3 -10 5 -5 8 -10 20 -10 25 0 6 5 3 10 -5 5 -8 10
-19 10 -25z"/>
<path d="M626 1799 c4 -7 8 -32 9 -58 1 -25 5 -58 9 -72 6 -22 3 -29 -24 -46
l-32 -20 26 -5 c19 -4 26 -1 27 11 0 10 2 12 6 4 5 -14 133 -19 133 -5 0 4 -5
27 -12 52 -6 25 -10 55 -10 67 2 23 -26 39 -41 24 -13 -13 -4 -46 12 -46 27 0
21 -20 -6 -21 -16 0 -37 -4 -48 -8 -14 -6 -16 -5 -6 2 7 5 15 32 17 59 4 45 2
51 -21 61 -33 15 -48 15 -39 1z m106 -71 c-7 -7 -12 -8 -12 -2 0 14 12 26 19
19 2 -3 -1 -11 -7 -17z"/>
<path d="M787 1685 c3 -33 10 -66 16 -72 5 -7 27 -13 49 -13 l39 0 -3 43 c-2
27 -7 41 -15 40 -7 -2 -13 3 -13 10 0 6 -12 -6 -26 -28 -21 -34 -24 -36 -18
-12 4 19 2 27 -7 27 -8 0 -6 5 6 13 12 10 14 16 7 21 -7 4 -16 5 -21 1 -5 -3
-12 3 -14 12 -3 10 -3 -9 0 -42z"/>
<path d="M1815 1690 c-11 -4 -51 -12 -90 -16 -65 -7 -68 -8 -37 -16 23 -6 38
-5 47 2 8 7 19 9 24 6 10 -7 81 19 81 28 0 7 1 7 -25 -4z"/>
<path d="M3115 1690 c-3 -5 -1 -10 4 -10 6 0 11 5 11 10 0 6 -2 10 -4 10 -3 0
-8 -4 -11 -10z"/>
<path d="M1598 1663 c-14 -4 -34 -32 -26 -38 2 -1 26 4 53 11 l50 13 -45 -5
-45 -4 30 14 c28 14 19 19 -17 9z"/>
<path d="M1527 1584 c-12 -12 -8 -51 8 -64 56 -46 771 -55 855 -10 21 11 27
54 10 65 -5 3 -95 0 -200 -7 -179 -11 -422 -4 -620 18 -25 3 -48 2 -53 -2z"/>
<path d="M2383 1479 c-25 -25 -91 -40 -203 -46 -92 -4 -122 -2 -152 10 -45 19
-50 14 -8 -8 35 -18 213 -21 275 -3 22 6 54 11 71 12 25 1 31 5 29 19 -2 9 0
17 5 17 9 0 25 -39 18 -46 -26 -26 -477 -32 -688 -9 -136 14 -282 39 -301 50
-16 11 -39 -15 -39 -44 0 -15 -7 -36 -15 -47 -8 -10 -15 -22 -15 -26 -1 -17
232 -51 483 -69 184 -14 482 -1 625 26 90 18 98 22 77 45 -9 10 -20 31 -24 46
-6 24 -14 30 -47 34 -31 4 -39 9 -39 25 0 23 -34 32 -52 14z"/>
<path d="M2960 1342 c0 -12 19 -26 26 -19 2 2 -2 10 -11 17 -9 8 -15 8 -15 2z"/>
</g>
</svg>
